<?xml version="1.0" encoding="UTF-8" standalone="no" ?>
<!DOCTYPE svg PUBLIC "-//W3C//DTD SVG 1.1//EN" "http://www.w3.org/Graphics/SVG/1.1/DTD/svg11.dtd">
<svg xmlns="http://www.w3.org/2000/svg" xmlns:xlink="http://www.w3.org/1999/xlink" version="1.1" width="1080" height="1080" viewBox="0 0 1080 1080" xml:space="preserve">
<desc>Created with Fabric.js 5.2.4</desc>
<defs>
</defs>
<g transform="matrix(1 0 0 1 540 540)" id="ba4f6040-c050-470a-a33a-f06876cee830"  >
<rect style="stroke: none; stroke-width: 1; stroke-dasharray: none; stroke-linecap: butt; stroke-dashoffset: 0; stroke-linejoin: miter; stroke-miterlimit: 4; fill: rgb(139,92,246); fill-rule: nonzero; opacity: 1; visibility: hidden;" vector-effect="non-scaling-stroke"  x="-540" y="-540" rx="0" ry="0" width="1080" height="1080" />
</g>
<g transform="matrix(1 0 0 1 540 540)" id="66a2678c-a346-4a50-b998-67bc5e0a3304"  >
</g>
<g transform="matrix(4.22 0 0 4.22 540 540)"  >
<path style="stroke: none; stroke-width: 1; stroke-dasharray: none; stroke-linecap: butt; stroke-dashoffset: 0; stroke-linejoin: miter; stroke-miterlimit: 4; fill: rgb(139,92,246); fill-rule: nonzero; opacity: 1;"  transform=" translate(-127.92, -127.93)" d="M 232.49 215.51 L 185 168 C 214.549547128353 129.49312425603654 209.15082960245792 74.66398931819387 172.65846213313057 42.65989065043921 C 136.16609466380325 10.655791982684548 81.10129222241468 12.457935441852243 46.779613832133464 46.77961383213348 C 12.457935441852243 81.10129222241471 10.655791982684548 136.16609466380322 42.659890650439195 172.65846213313057 C 74.66398931819384 209.15082960245792 129.4931242560365 214.549547128353 167.99999999999997 185 L 215.53 232.54 C 220.22442037356174 237.23442037356173 227.83557962643826 237.23442037356173 232.53 232.54 C 237.22442037356174 227.84557962643825 237.22442037356174 220.23442037356173 232.53 215.54 Z M 44 112 C 44 74.44463701150605 74.44463701150605 44 112 44 C 149.55536298849395 44 180 74.44463701150603 180 111.99999999999999 C 180 149.55536298849393 149.55536298849398 180 112.00000000000001 180 C 74.4606306102878 179.9614160790164 44.038583920983584 149.5393693897122 44 112 Z" stroke-linecap="round" />
</g>
<g transform="matrix(2.02 0 0 2.02 475.04 459.15)"  >
<path style="stroke: none; stroke-width: 1; stroke-dasharray: none; stroke-linecap: butt; stroke-dashoffset: 0; stroke-linejoin: miter; stroke-miterlimit: 4; fill: rgb(139,92,246); fill-rule: nonzero; opacity: 1;"  transform=" translate(-127.97, -127.99)" d="M 176 116 L 152 116 C 145.37258300203047 116 140 110.62741699796952 140 104 C 140 97.37258300203048 145.37258300203047 92 152 92 L 176 92 C 182.62741699796953 92 188 97.37258300203048 188 104 C 188 110.62741699796952 182.62741699796953 116 176 116 Z M 104 92 L 100 92 L 100 88 C 100 81.37258300203048 94.62741699796952 76 88 76 C 81.37258300203048 76 76 81.37258300203048 76 88 L 76 92 L 72 92 C 65.37258300203048 92 60 97.37258300203048 60 104 C 60 110.62741699796952 65.37258300203048 116 72 116 L 76 116 L 76 120 C 76 126.62741699796952 81.37258300203048 132 88 132 C 94.62741699796952 132 100 126.62741699796952 100 120 L 100 116 L 104 116 C 110.62741699796952 116 116 110.62741699796952 116 104 C 116 97.37258300203048 110.62741699796952 92 104 92 Z M 244.76 202.94 C 237.97868834400555 212.60936868300936 227.2709342378236 218.7877049850405 215.50581014144493 219.81956422955898 C 203.74068604506624 220.85142347407742 192.12093753930742 216.63131895850339 183.76 208.29 C 183.5731791839897 208.11321225376568 183.3962441807925 207.92626206170826 183.23 207.73 L 144.67 164 L 111.33 164 L 72.81 207.73 C 72.64 207.92 72.46000000000001 208.10999999999999 72.28 208.29 C 59.93203779181833 220.62223535582447 41.01418566900912 223.52572621707668 25.536209344031 215.46418489735706 C 10.058233019052878 207.40264357763743 1.5931567000964861 190.2370421889271 4.6200000000000045 173.05 C 4.614340102047901 172.98345346250144 4.614340102047901 172.9165465374986 4.62 172.85000000000002 L 21 88.79 C 26.380114511082006 58.27032926906309 52.88974795127419 36.014547632489524 83.87999999999995 36 L 172 36 C 202.88202350125414 36.0440141609037 229.33964690128408 58.10815012202829 234.93 88.48 C 234.9333449235329 88.54328916814869 234.9333449235329 88.60671083185129 234.93 88.66999999999999 L 251.29000000000002 172.83999999999997 C 251.29376948873372 172.9066133827467 251.29376948873372 172.97338661725323 251.29000000000002 173.03999999999996 C 253.19230544162164 183.47875836471266 250.84106668197154 194.2447673866941 244.76 202.94 Z M 172 140 C 194.09138999323173 140 212 122.09138999323173 212 100 C 212 77.90861000676827 194.09138999323173 60 172 60 L 83.89 60 C 64.5076954933196 60.019113087580436 47.94267296428007 73.96460951768094 44.61999999999999 93.06000000000003 C 44.61525261184816 93.12991950823476 44.61525261184816 93.20008049176523 44.62 93.27 L 28.279999999999998 177.26999999999998 C 26.804709996003645 185.9458362672218 32.612856808697224 194.18446913076562 41.28 195.70999999999998 C 46.30636709457217 196.58651293294636 51.450306394324365 195.02403209225685 55.14 191.49999999999997 L 96.9 144.07 C 99.17666945502349 141.4843019190264 102.45485051064975 140.0018355972043 105.9 140 Z M 227.76 177.31 L 220.76 141.36 C 209.63759049812055 154.51237650572952 193.67238019970256 162.61218728735292 176.48999999999998 163.82000000000002 L 200.89999999999998 191.54000000000002 C 205.88227020063627 196.31987268180288 213.36870157991598 197.36466166720817 219.46925475358233 194.13148208950716 C 225.5698079272487 190.89830251180615 228.90829575991967 184.11650792543034 227.74999999999997 177.31000000000003 Z" stroke-linecap="round" />
</g>
</svg>